# xmcd
#
# Track frame offsets:
#	150
#	16607
#	33692
#	51910
#	73205
#	91387
#	113132
#	129972
#	150405
#	167560
#	187125
#	206962
#	225032
#	240750
#	259772
#	281397
#
# Disc length: 4005 seconds
#
# Revision: 1
# Processed by: cddbd v1.5.1PL0 Copyright (c) Steve Scherf et al.
# Submitted via: CDex 1.50Beta5
#
DISCID=cc0fa310
DTITLE=村田英雄 - 全曲集
DYEAR=1996
DGENRE=World
TTITLE0=人生劇場
TTITLE1=男の一生
TTITLE2=人生峠
TTITLE3=なみだ坂
TTITLE4=心機一天
TTITLE5=男の祈り
TTITLE6=男の土俵
TTITLE7=あゝ万次郎
TTITLE8=花と竜
TTITLE9=男吉良常
TTITLE10=山頭火
TTITLE11=夫婦酒
TTITLE12=男三代
TTITLE13=嫁ぐ日よ
TTITLE14=男の花吹雪
TTITLE15=昭和ひと桁人生噺
EXTD=
EXTT0=
EXTT1=
EXTT2=
EXTT3=
EXTT4=
EXTT5=
EXTT6=
EXTT7=
EXTT8=
EXTT9=
EXTT10=
EXTT11=
EXTT12=
EXTT13=
EXTT14=
EXTT15=
PLAYORDER=
